#!OML:ASF X:\für Bonn\!DataBase\2005_08_10_Bjorn_Final\c3d\bjorn.ASF
:FULLY-SPECIFIED
:DEGREES
46
root 2.07015 18.7545 1.1072 325.612 -264.556 -393.594
lowerback 13.6815 2.4134 0.002378
upperback 14.5728 4.61584 -2.33615
thorax 8.24042 2.99784 -2.70813
lowerneck -0.144813 -6.51226 1.94053
upperneck 16.4396 -8.61849 1.61588
head 4.95923 -3.81493 -0.168429
rclavicle -3.926e-015 7.15625e-015
rhumerus -0.624225 6.1602 -84.3234
rradius 41.847
rwrist -6.38356
rhand -20.9322 16.251
rfingers 7.12502
rthumb 5.43978 -13.6592
lclavicle -3.926e-015 7.15625e-015
lhumerus -18.5697 -12.9403 88.6783
lradius 33.4178
lwrist -14.03
lhand -25.9106 -7.08571
lfingers 7.12502
lthumb 0.632104 22.8931
rfemur -23.1588 -9.05214 17.4433
rtibia 43.2986
rfoot -12.9778 15.1657
rtoes 6.48896
lfemur -27.674 11.3007 -20.9373
ltibia 45.0777
lfoot -9.36836 3.05899
ltoes -14.6966
47
root 2.07562 18.6936 1.10872 325.933 -264.515 -393.385
lowerback 14.1122 2.35641 -0.0743265
upperback 14.7843 4.57546 -2.33683
thorax 8.24602 2.99124 -2.68261
lowerneck -0.220727 -6.51777 1.83302
upperneck 15.9236 -8.66419 1.81733
head 4.82649 -3.85461 -0.0862393
rclavicle -2.40529e-014 1.07344e-014
rhumerus 0.248109 6.45333 -83.9583
rradius 41.8112
rwrist -6.46292
rhand -20.8457 16.1479
rfingers 7.12502
rthumb 5.52331 -13.7601
lclavicle -2.40529e-014 1.07344e-014
lhumerus -17.7538 -13.6934 88.5836
lradius 34.0168
lwrist -13.4931
lhand -26.5197 -6.836
lfingers 7.12502
lthumb 0.0437566 23.1437
rfemur -23.876 -8.93238 17.4601
rtibia 44.4351
rfoot -13.5352 15.1732
rtoes 6.49325
lfemur -28.154 11.1781 -20.938
ltibia 45.7949
lfoot -9.52733 3.15554
ltoes -14.6457
48
root 2.08052 18.6297 1.10881 326.299 -264.467 -393.132
lowerback 14.5606 2.31123 -0.130027
upperback 14.9695 4.54693 -2.32086
thorax 8.21364 2.98987 -2.65367
lowerneck -0.228958 -6.53006 1.7776
upperneck 15.045 -8.6992 1.97746
head 5.09418 -3.89441 -0.00344313
rclavicle -3.4191e-014 4.75095e-014
rhumerus 1.05575 6.68695 -83.5585
rradius 41.6928
rwrist -6.52303
rhand -20.8692 16.2245
rfingers 7.12502
rthumb 5.50062 -13.6841
lclavicle -3.4191e-014 4.75095e-014
lhumerus -17.0072 -14.459 88.5002
lradius 34.6423
lwrist -13.055
lhand -27.0984 -6.70531
lfingers 7.12502
lthumb -0.515167 23.2738
rfemur -24.6125 -8.79024 17.4645
rtibia 45.6073
rfoot -14.0975 15.1839
rtoes 6.66519
lfemur -28.6487 11.0631 -20.9408
ltibia 46.5681
lfoot -9.76891 3.14992
ltoes -14.4536
49
root 2.08439 18.5615 1.10783 326.305 -264.371 -393.236
lowerback 15.0263 2.26691 -0.192653
upperback 15.1578 4.52151 -2.31781
thorax 8.17832 2.99134 -2.63557
lowerneck -0.337766 -6.5524 1.81904
upperneck 14.6167 -8.75668 2.06909
head 4.95739 -3.93429 0.0211057
rclavicle -1.21259e-014 -2.88238e-015
rhumerus 1.84753 6.86542 -83.1451
rradius 41.4921
rwrist -6.42399
rhand -20.9414 16.2676
rfingers 7.12502
rthumb 5.43091 -13.6428
lclavicle -1.21259e-014 -2.88238e-015
lhumerus -16.2183 -15.3099 88.398
lradius 35.2586
lwrist -12.5915
lhand -27.6524 -6.59922
lfingers 7.12502
lthumb -1.05024 23.3779
rfemur -25.364 -8.68712 17.4034
rtibia 46.8147
rfoot -14.7154 15.1894
rtoes 6.44363
lfemur -29.1701 10.8918 -21.0018
ltibia 47.4072
lfoot -10.0737 3.08175
ltoes -14.0747
50
root 2.08805 18.4897 1.10554 326.402 -264.262 -393.239
lowerback 15.5183 2.22023 -0.276292
upperback 15.3181 4.48265 -2.27142
thorax 8.09066 2.97894 -2.56114
lowerneck -0.422356 -6.57278 1.79138
upperneck 14.2653 -8.80276 2.14802
head 4.84849 -3.96953 0.0529945
rclavicle 6.66923e-014 -3.73715e-014
rhumerus 2.54987 7.11583 -82.6478
rradius 41.2777
rwrist -6.4276
rhand -21.0007 16.3294
rfingers 7.12502
rthumb 5.37369 -13.5825
lclavicle 6.66923e-014 -3.73715e-014
lhumerus -15.4476 -16.1249 88.34
lradius 35.8296
lwrist -12.1727
lhand -28.3016 -6.66987
lfingers 7.12502
lthumb -1.6772 23.3033
rfemur -26.1196 -8.58012 17.3338
rtibia 48.0572
rfoot -15.326 15.1932
rtoes 6.52139
lfemur -29.7205 10.7247 -21.067
ltibia 48.3176
lfoot -10.4446 2.94631
ltoes -13.6325
51
root 2.0912 18.4131 1.10155 326.648 -264.128 -393.056
lowerback 16.0548 2.1624 -0.326631
upperback 15.4817 4.43345 -2.22049
thorax 7.98675 2.96548 -2.50161
lowerneck -0.555093 -6.61285 1.80695
upperneck 13.9961 -8.87158 2.17036
head 4.77507 -4.01287 0.0544217
rclavicle 3.55825e-014 -4.13472e-014
rhumerus 3.23351 7.26824 -82.1774
rradius 41.0715
rwrist -6.33661
rhand -21.073 16.3591
rfingers 7.12502
rthumb 5.3039 -13.5545
lclavicle 3.55825e-014 -4.13472e-014
lhumerus -14.659 -16.9317 88.2675
lradius 36.3949
lwrist -11.7819
lhand -28.979 -6.89112
lfingers 7.12502
lthumb -2.33138 23.0759
rfemur -26.8524 -8.5122 17.259
rtibia 49.3312
rfoot -15.9791 15.1701
rtoes 6.37536
lfemur -30.2708 10.5285 -21.1266
ltibia 49.3044
lfoot -10.8986 2.74563
ltoes -13.1626
52
root 2.09284 18.3341 1.0954 327.038 -263.971 -392.722
lowerback 16.6114 2.09075 -0.337642
upperback 15.6271 4.3663 -2.15452
thorax 7.85325 2.94478 -2.44767
lowerneck -0.606002 -6.67665 1.76772
upperneck 13.7624 -8.9594 2.15885
head 4.6999 -4.06849 0.0556453
rclavicle -7.15625e-015 9.54166e-015
rhumerus 3.87968 7.36561 -81.7082
rradius 40.8668
rwrist -6.21269
rhand -20.9476 16.0983
rfingers 7.12502
rthumb 5.42497 -13.8122
lclavicle -7.15625e-015 9.54166e-015
lhumerus -13.8856 -17.8084 88.1998
lradius 37.0181
lwrist -11.2543
lhand -29.631 -7.16153
lfingers 7.12502
lthumb -2.9611 22.7977
rfemur -27.5952 -8.49432 17.1684
rtibia 50.6303
rfoot -16.6233 15.1883
rtoes 6.37419
lfemur -30.8656 10.306 -21.1981
ltibia 50.3524
lfoot -11.3795 2.51897
ltoes -12.7355
53
root 2.09403 18.2502 1.08719 327.722 -263.827 -392.072
lowerback 17.1827 2.01258 -0.274083
upperback 15.8017 4.30611 -2.08961
thorax 7.75463 2.93769 -2.43546
lowerneck -0.753801 -6.75147 1.82724
upperneck 13.5545 -9.06903 2.12159
head 4.64714 -4.12979 0.026691
rclavicle -4.05521e-014 3.00165e-014
rhumerus 4.58271 7.31983 -81.264
rradius 40.6795
rwrist -6.08515
rhand -20.7889 15.8535
rfingers 7.12502
rthumb 5.57817 -14.0531
lclavicle -4.05521e-014 3.00165e-014
lhumerus -12.9904 -18.7107 88.0588
lradius 37.6286
lwrist -10.7083
lhand -30.14 -7.45973
lfingers 7.12502
lthumb -3.45267 22.4921
rfemur -28.3268 -8.47615 17.1135
rtibia 51.9516
rfoot -17.2825 15.1985
rtoes 6.25871
lfemur -31.4861 10.1075 -21.2399
ltibia 51.467
lfoot -11.8994 2.23388
ltoes -12.2342
